<svg width="24" height="24" viewBox="0 0 24 24" fill="none" xmlns="http://www.w3.org/2000/svg">
<path d="M5.61 6.27505C5.35088 6.27505 5.10238 6.37798 4.91915 6.5612C4.73593 6.74442 4.633 6.99293 4.633 7.25204C4.633 7.51116 4.73593 7.75967 4.91915 7.94289C5.10238 8.12611 5.35088 8.22905 5.61 8.22905H6.986C7.084 8.22905 7.172 8.28605 7.211 8.37505L7.836 9.90905C7.85781 9.946 7.86932 9.98813 7.86932 10.031C7.86932 10.074 7.85781 10.1161 7.836 10.153L7.494 10.583C7.45978 10.6255 7.41233 10.6552 7.35922 10.6676C7.30612 10.6799 7.25041 10.6741 7.201 10.651C6.55159 10.3407 5.84072 10.1805 5.121 10.182C1.361 10.185 -0.986002 14.257 0.895998 17.512C2.778 20.767 7.478 20.762 9.356 17.505C9.58461 17.1053 9.7569 16.6759 9.868 16.229C9.87936 16.1757 9.90892 16.128 9.95161 16.094C9.99431 16.0601 10.0475 16.0421 10.102 16.043H10.493C10.647 16.0432 10.7989 16.0071 10.9363 15.9376C11.0737 15.8681 11.1929 15.7672 11.284 15.643L15.465 9.93805C15.4903 9.90316 15.5246 9.87574 15.5642 9.85867C15.6038 9.8416 15.6472 9.83551 15.69 9.84104C15.7369 9.85296 15.7789 9.87904 15.8104 9.91572C15.8419 9.95241 15.8613 9.99792 15.866 10.046L16.139 10.788C16.1599 10.8396 16.1626 10.8968 16.1466 10.95C16.1306 11.0033 16.0969 11.0496 16.051 11.081C12.984 13.255 13.421 17.935 16.837 19.504C20.253 21.074 24.087 18.356 23.738 14.612C23.6238 13.3869 23.0513 12.25 22.1351 11.4287C21.2188 10.6073 20.0263 10.1621 18.796 10.182C18.6171 10.1724 18.4379 10.1724 18.259 10.182C18.2036 10.1922 18.1464 10.182 18.0979 10.1533C18.0494 10.1247 18.0129 10.0795 17.995 10.026L16.765 6.72504C16.7407 6.65853 16.7407 6.58556 16.765 6.51905C16.8006 6.46197 16.8562 6.42025 16.921 6.40205L18.631 5.97205C18.8823 5.90839 19.098 5.74752 19.2307 5.52482C19.3634 5.30212 19.4021 5.03584 19.3385 4.78455C19.2748 4.53325 19.114 4.31754 18.8913 4.18486C18.6686 4.05217 18.4023 4.01339 18.151 4.07705L15.661 4.70305C15.241 4.79305 14.883 5.06505 14.684 5.44505C14.489 5.81205 14.457 6.24505 14.596 6.63705L14.674 6.84205C14.734 6.97205 14.664 7.12405 14.528 7.16405L9.77 8.87404C9.71177 8.89579 9.64731 8.89358 9.59071 8.8679C9.53411 8.84222 9.48999 8.79517 9.468 8.73705L9.35 8.46305C9.3383 8.43871 9.33222 8.41205 9.33222 8.38505C9.33222 8.35804 9.3383 8.33138 9.35 8.30705C9.36698 8.28374 9.38904 8.26461 9.4145 8.2511C9.43997 8.23758 9.46818 8.23004 9.497 8.22905C9.75611 8.22905 10.0046 8.12611 10.1878 7.94289C10.3711 7.75967 10.474 7.51116 10.474 7.25204C10.474 6.99293 10.3711 6.74442 10.1878 6.5612C10.0046 6.37798 9.75611 6.27505 9.497 6.27505H5.61ZM5.12 17.997C2.865 18.004 1.448 15.566 2.57 13.609C3.692 11.652 6.512 11.644 7.646 13.594C7.67133 13.638 7.69566 13.6827 7.719 13.728C7.73815 13.7659 7.74813 13.8077 7.74813 13.85C7.74813 13.8924 7.73815 13.9342 7.719 13.972C7.69659 14.0065 7.66633 14.0352 7.63069 14.0557C7.59506 14.0762 7.55506 14.088 7.514 14.09H5.12C4.86642 14.0982 4.62595 14.2046 4.44944 14.3868C4.27294 14.5691 4.17425 14.8128 4.17425 15.0665C4.17425 15.3202 4.27294 15.564 4.44944 15.7462C4.62595 15.9285 4.86642 16.0349 5.12 16.043H7.503C7.54445 16.0433 7.58512 16.0544 7.62104 16.075C7.65697 16.0957 7.68693 16.1253 7.708 16.161C7.748 16.234 7.748 16.322 7.708 16.395C7.46474 16.8735 7.09472 17.276 6.63834 17.5585C6.18195 17.841 5.65673 17.9927 5.12 17.997ZM10.054 14.012C10.039 14.0205 10.0222 14.0249 10.005 14.0249C9.98783 14.0249 9.97096 14.0205 9.956 14.012C9.93903 14.0097 9.92295 14.0031 9.90929 13.9927C9.89564 13.9824 9.88486 13.9687 9.878 13.953C9.72967 13.2841 9.43984 12.6547 9.028 12.107C8.99545 12.0632 8.97787 12.0101 8.97787 11.9555C8.97787 11.901 8.99545 11.8478 9.028 11.804L9.575 11.023C9.61 11.0133 9.64699 11.0133 9.682 11.023L12.447 10.046C12.547 10.009 12.66 10.046 12.72 10.134C12.787 10.216 12.787 10.334 12.72 10.417L10.054 14.012ZM18.845 17.997C18.0679 17.997 17.3227 17.6883 16.7732 17.1389C16.2237 16.5894 15.915 15.8441 15.915 15.067C15.9244 14.3415 16.2027 13.6452 16.696 13.113C16.7078 13.0803 16.7271 13.0508 16.7525 13.027C16.7779 13.0032 16.8086 12.9857 16.842 12.976C16.8837 12.9841 16.9227 13.0027 16.9552 13.03C16.9877 13.0572 17.0128 13.0924 17.028 13.132L17.848 15.36C17.988 15.746 18.356 16.004 18.767 16.004C18.8837 16.004 18.9977 15.9847 19.109 15.946C19.2298 15.9014 19.3405 15.8334 19.4349 15.7458C19.5293 15.6582 19.6054 15.5529 19.659 15.4358C19.7125 15.3187 19.7423 15.1922 19.7468 15.0635C19.7513 14.9349 19.7303 14.8066 19.685 14.686L18.708 12.126C20.964 12.126 22.374 14.568 21.246 16.522C20.9888 16.9675 20.6188 17.3375 20.1733 17.5946C19.7278 17.8518 19.2224 17.9871 18.708 17.987L18.845 17.997Z" fill="white"/>
</svg>
