<svg width="80" height="32" viewBox="0 0 80 32" fill="none" xmlns="http://www.w3.org/2000/svg">
<path d="M48.8527 15.2799C48.7958 15.3143 48.7569 15.369 48.7467 15.4346C48.7364 15.5001 48.7555 15.571 48.798 15.6292C48.8404 15.6874 48.9021 15.7273 48.9676 15.7375C49.0331 15.7478 49.0971 15.7276 49.1473 15.6839C49.1473 15.6839 49.1473 15.6839 49.1473 15.6839C49.176 15.6582 49.214 15.6277 49.2507 15.5988C49.9244 15.0802 50.7118 14.6678 51.5599 14.4254C51.6068 14.4121 51.6541 14.3993 51.702 14.387C51.6528 14.391 51.6038 14.3957 51.5552 14.4008C50.6721 14.4978 49.8033 14.7721 48.9916 15.2007C48.9448 15.2263 48.904 15.2483 48.8527 15.2799Z" fill="#43A195"/>
<path d="M39.4697 19.4697C39.3106 19.5919 39.2155 19.7666 39.2158 19.9658C39.2155 20.1644 39.3106 20.3713 39.4697 20.5303C39.6287 20.6894 39.8356 20.7845 40.0342 20.7842C40.2334 20.7845 40.4081 20.6894 40.5303 20.5303C40.5303 20.5303 40.5303 20.5303 40.5303 20.5303C40.5519 20.4979 40.5936 20.4473 40.6267 20.4056C41.2824 19.614 42.0439 18.8507 42.9379 18.3458C42.9876 18.3184 43.0385 18.2919 43.0889 18.2668C43.1484 18.2379 43.1964 18.1828 43.2237 18.1182C43.251 18.0534 43.2555 17.9844 43.2346 17.9218C43.2137 17.8592 43.1688 17.8067 43.108 17.7712C43.0474 17.7359 42.976 17.7206 42.9111 17.7332C42.9111 17.7332 42.9111 17.7332 42.9111 17.7332C42.8476 17.7461 42.7833 17.7609 42.7204 17.7766C41.5815 18.0784 40.5826 18.6669 39.6338 19.3447C39.5808 19.3836 39.5302 19.4207 39.4697 19.4697Z" fill="#43A195"/>
<path d="M31.8146 30.1404C31.8181 30.2288 31.8373 30.3187 31.8831 30.395C31.9288 30.4714 31.9965 30.5277 32.0765 30.5532C32.1565 30.5787 32.2442 30.572 32.3257 30.5363C32.4072 30.5005 32.475 30.4384 32.5291 30.3683C32.5291 30.3683 32.5291 30.3683 32.5291 30.3683C32.6055 30.2657 32.678 30.1624 32.7472 30.058C33.3677 29.0806 33.727 28.2462 34.2115 27.5858C34.6868 26.9007 35.3034 26.1812 35.9729 25.3461C36.0446 25.2553 36.119 25.1616 36.1963 25.0652C36.2514 24.9959 36.2954 24.9152 36.3106 24.8275C36.3257 24.7398 36.3112 24.653 36.2672 24.5815C36.2233 24.5099 36.1524 24.4577 36.0673 24.4316C35.9822 24.4055 35.8903 24.4084 35.8036 24.4262C35.6781 24.4544 35.5561 24.4845 35.4374 24.5164C34.3546 24.8188 33.2967 25.4082 32.57 26.4433C31.8189 27.4948 31.7401 28.7621 31.7984 29.784C31.8033 29.9022 31.8091 30.0202 31.8146 30.1404Z" fill="#43A195"/>
<path d="M45.0728 30.8284C45.2873 30.9847 45.5524 31.0466 45.8129 30.9962C46.0732 30.946 46.3075 30.7875 46.4613 30.5601C46.6151 30.3327 46.6748 30.0562 46.6244 29.796C46.5742 29.5354 46.4179 29.3124 46.193 29.1716C46.193 29.1716 46.193 29.1716 46.193 29.1716C45.8205 28.9399 45.4573 28.6819 45.1178 28.4051C43.5919 27.1762 42.4267 25.3958 42.8409 23.599C43.2397 21.7846 44.9026 20.2922 46.6623 19.1462C50.2283 16.8842 54.4313 15.5244 58.5869 14.3717C59.0458 14.2467 59.5168 14.1228 60 14C60 14 60 14 60 14C59.5096 14.0902 59.0311 14.1817 58.564 14.2744C54.3266 15.1438 50.0458 16.1876 46.1477 18.2887C44.2323 19.3869 42.2111 20.7788 41.4368 23.237C40.6703 25.7775 42.1818 28.29 43.8622 29.8311C44.2439 30.1895 44.6515 30.5234 45.0728 30.8284Z" fill="#43A195"/>
<path d="M18.565 27.6069C18.1729 27.9655 17.9499 28.458 17.9581 28.9888C17.9656 29.5188 18.2037 30.0436 18.6069 30.435C19.0101 30.8265 19.5418 31.0489 20.0718 31.0407C20.6025 31.0332 21.0882 30.7957 21.435 30.3931C21.435 30.3931 21.435 30.3931 21.435 30.3931C21.7654 30.0048 22.1381 29.5996 22.5068 29.2152C29.4372 22.2605 38.3956 16.7269 48.3311 14.3534C48.8862 14.2243 49.4384 14.107 50 14C49.4298 14.0408 48.8662 14.0925 48.2973 14.1563C38.0641 15.3746 28.2618 19.8271 19.9338 26.4188C19.4775 26.7933 19.0087 27.1976 18.565 27.6069Z" fill="#43A195"/>
<path d="M2.208 4.784C2.35733 4.784 2.512 4.82667 2.672 4.912C2.84267 4.98667 2.97067 5.088 3.056 5.216L6.944 11.2L6.144 11.168L10.128 5.216C10.3307 4.928 10.592 4.784 10.912 4.784C11.168 4.784 11.3973 4.87467 11.6 5.056C11.8027 5.23733 11.904 5.472 11.904 5.76V15.024C11.904 15.3013 11.8133 15.536 11.632 15.728C11.4507 15.9093 11.2107 16 10.912 16C10.6133 16 10.368 15.9093 10.176 15.728C9.99467 15.536 9.904 15.3013 9.904 15.024V7.488L10.528 7.632L7.264 12.608C7.168 12.7253 7.04533 12.8267 6.896 12.912C6.75733 12.9973 6.61333 13.0347 6.464 13.024C6.32533 13.0347 6.18133 12.9973 6.032 12.912C5.89333 12.8267 5.776 12.7253 5.68 12.608L2.624 7.776L3.04 6.928V15.024C3.04 15.3013 2.95467 15.536 2.784 15.728C2.61333 15.9093 2.38933 16 2.112 16C1.84533 16 1.62667 15.9093 1.456 15.728C1.28533 15.536 1.2 15.3013 1.2 15.024V5.76C1.2 5.49333 1.296 5.264 1.488 5.072C1.69067 4.88 1.93067 4.784 2.208 4.784ZM22.4534 11.728C22.4534 12.6027 22.256 13.376 21.8614 14.048C21.4774 14.7093 20.9547 15.2267 20.2934 15.6C19.6427 15.9733 18.912 16.16 18.1014 16.16C17.2907 16.16 16.5547 15.9733 15.8934 15.6C15.2427 15.2267 14.72 14.7093 14.3254 14.048C13.9414 13.376 13.7494 12.6027 13.7494 11.728C13.7494 10.8533 13.9414 10.0853 14.3254 9.424C14.72 8.752 15.2427 8.22933 15.8934 7.856C16.5547 7.472 17.2907 7.28 18.1014 7.28C18.912 7.28 19.6427 7.472 20.2934 7.856C20.9547 8.22933 21.4774 8.752 21.8614 9.424C22.256 10.0853 22.4534 10.8533 22.4534 11.728ZM20.5334 11.728C20.5334 11.184 20.4214 10.7147 20.1974 10.32C19.984 9.91467 19.6907 9.6 19.3174 9.376C18.9547 9.152 18.5494 9.04 18.1014 9.04C17.6534 9.04 17.2427 9.152 16.8694 9.376C16.5067 9.6 16.2134 9.91467 15.9894 10.32C15.776 10.7147 15.6694 11.184 15.6694 11.728C15.6694 12.2613 15.776 12.7307 15.9894 13.136C16.2134 13.5307 16.5067 13.84 16.8694 14.064C17.2427 14.288 17.6534 14.4 18.1014 14.4C18.5494 14.4 18.9547 14.288 19.3174 14.064C19.6907 13.84 19.984 13.5307 20.1974 13.136C20.4214 12.7307 20.5334 12.2613 20.5334 11.728ZM24.4396 7.44C24.6423 7.44 24.829 7.49333 24.9996 7.6C25.1703 7.696 25.2983 7.84533 25.3836 8.048L27.7356 13.424L27.3836 13.584L29.7836 8.064C29.965 7.63733 30.2476 7.43467 30.6316 7.456C30.8983 7.456 31.1116 7.54133 31.2716 7.712C31.4423 7.872 31.5276 8.07467 31.5276 8.32C31.5276 8.39467 31.5116 8.47467 31.4796 8.56C31.4583 8.64533 31.4316 8.72533 31.3996 8.8L28.4076 15.392C28.237 15.776 27.965 15.9787 27.5916 16C27.389 16.032 27.1916 15.9947 26.9996 15.888C26.8183 15.7813 26.6796 15.616 26.5836 15.392L23.6076 8.8C23.5863 8.74667 23.5596 8.67733 23.5276 8.592C23.5063 8.50667 23.4956 8.40533 23.4956 8.288C23.4956 8.096 23.581 7.90933 23.7516 7.728C23.9223 7.536 24.1516 7.44 24.4396 7.44ZM36.9939 16.16C36.0872 16.16 35.2979 15.9733 34.6259 15.6C33.9645 15.216 33.4525 14.6987 33.0899 14.048C32.7379 13.3973 32.5619 12.6613 32.5619 11.84C32.5619 10.88 32.7539 10.064 33.1379 9.392C33.5325 8.70933 34.0445 8.18667 34.6739 7.824C35.3032 7.46133 35.9699 7.28 36.6739 7.28C37.2179 7.28 37.7299 7.392 38.2099 7.616C38.7005 7.84 39.1325 8.14933 39.5059 8.544C39.8792 8.928 40.1725 9.376 40.3859 9.888C40.6099 10.4 40.7219 10.944 40.7219 11.52C40.7112 11.776 40.6099 11.984 40.4179 12.144C40.2259 12.304 40.0019 12.384 39.7459 12.384H33.6339L33.1539 10.784H39.0259L38.6739 11.104V10.672C38.6525 10.3627 38.5405 10.0853 38.3379 9.84C38.1459 9.59467 37.9005 9.40267 37.6019 9.264C37.3139 9.11467 37.0045 9.04 36.6739 9.04C36.3539 9.04 36.0552 9.08267 35.7779 9.168C35.5005 9.25333 35.2605 9.39733 35.0579 9.6C34.8552 9.80267 34.6952 10.0747 34.5779 10.416C34.4605 10.7573 34.4019 11.1893 34.4019 11.712C34.4019 12.288 34.5192 12.7787 34.7539 13.184C34.9992 13.5787 35.3085 13.8827 35.6819 14.096C36.0659 14.2987 36.4712 14.4 36.8979 14.4C37.2925 14.4 37.6072 14.368 37.8419 14.304C38.0765 14.24 38.2632 14.1653 38.4019 14.08C38.5512 13.984 38.6845 13.904 38.8019 13.84C38.9939 13.744 39.1752 13.696 39.3459 13.696C39.5805 13.696 39.7725 13.776 39.9219 13.936C40.0819 14.096 40.1619 14.2827 40.1619 14.496C40.1619 14.784 40.0125 15.0453 39.7139 15.28C39.4365 15.5147 39.0472 15.7227 38.5459 15.904C38.0445 16.0747 37.5272 16.16 36.9939 16.16ZM55.8234 4.768C55.962 4.768 56.0794 4.81067 56.1754 4.896C56.282 4.97067 56.3354 5.088 56.3354 5.248C56.3354 5.30133 56.3247 5.37067 56.3034 5.456L52.7674 15.696C52.7354 15.792 52.6767 15.8667 52.5914 15.92C52.506 15.9733 52.4207 16 52.3354 16C52.2287 16 52.1327 15.9787 52.0474 15.936C51.962 15.8827 51.898 15.8027 51.8554 15.696L49.0234 8.688L49.1514 8.72L46.3194 15.696C46.2767 15.8027 46.2074 15.8827 46.1114 15.936C46.026 15.9787 45.9354 16 45.8394 16C45.754 16 45.6687 15.9733 45.5834 15.92C45.5087 15.8667 45.4554 15.792 45.4234 15.696L41.8874 5.456C41.8554 5.37067 41.8394 5.30667 41.8394 5.264C41.8394 5.104 41.898 4.98133 42.0154 4.896C42.1327 4.81067 42.25 4.768 42.3674 4.768C42.474 4.768 42.57 4.79467 42.6554 4.848C42.7407 4.90133 42.7994 4.976 42.8314 5.072L46.0474 14.448L45.8714 14.464L48.6554 7.52C48.6874 7.424 48.7407 7.34933 48.8154 7.296C48.9007 7.232 48.9967 7.20533 49.1034 7.216C49.21 7.20533 49.3007 7.232 49.3754 7.296C49.4607 7.34933 49.5247 7.424 49.5674 7.52L52.3194 14.432L52.1434 14.496L55.3434 5.072C55.3754 4.976 55.434 4.90133 55.5194 4.848C55.6047 4.79467 55.706 4.768 55.8234 4.768ZM59.0045 15.52C59.0045 15.648 58.9565 15.76 58.8605 15.856C58.7645 15.952 58.6525 16 58.5245 16C58.3858 16 58.2685 15.952 58.1725 15.856C58.0872 15.76 58.0445 15.648 58.0445 15.52V8.16C58.0445 8.032 58.0872 7.92 58.1725 7.824C58.2685 7.728 58.3858 7.68 58.5245 7.68C58.6632 7.68 58.7752 7.728 58.8605 7.824C58.9565 7.92 59.0045 8.032 59.0045 8.16V15.52ZM58.5245 6.608C58.3005 6.608 58.1298 6.56 58.0125 6.464C57.9058 6.35733 57.8525 6.208 57.8525 6.016V5.856C57.8525 5.664 57.9112 5.52 58.0285 5.424C58.1565 5.31733 58.3272 5.264 58.5405 5.264C58.7432 5.264 58.8978 5.31733 59.0045 5.424C59.1218 5.52 59.1805 5.664 59.1805 5.856V6.016C59.1805 6.208 59.1218 6.35733 59.0045 6.464C58.8978 6.56 58.7378 6.608 58.5245 6.608ZM61.0344 14.704C60.949 14.576 60.9064 14.4533 60.9064 14.336C60.917 14.208 60.9864 14.1067 61.1144 14.032C61.1997 13.9573 61.2957 13.9253 61.4024 13.936C61.5197 13.9467 61.6264 14 61.7224 14.096C62.0104 14.4693 62.357 14.7733 62.7624 15.008C63.1784 15.232 63.669 15.344 64.2344 15.344C64.533 15.344 64.8264 15.296 65.1144 15.2C65.413 15.0933 65.6584 14.9387 65.8504 14.736C66.0424 14.5227 66.1384 14.256 66.1384 13.936C66.1384 13.6053 66.0424 13.3387 65.8504 13.136C65.6584 12.9333 65.4077 12.7733 65.0984 12.656C64.7997 12.5387 64.4797 12.4373 64.1384 12.352C63.7757 12.256 63.4237 12.1493 63.0824 12.032C62.741 11.904 62.437 11.7493 62.1704 11.568C61.9144 11.376 61.7064 11.1467 61.5464 10.88C61.3864 10.6133 61.3064 10.288 61.3064 9.904C61.3064 9.456 61.429 9.06133 61.6744 8.72C61.9197 8.37867 62.2504 8.112 62.6664 7.92C63.093 7.728 63.573 7.632 64.1064 7.632C64.373 7.632 64.661 7.66933 64.9704 7.744C65.2797 7.808 65.5837 7.92 65.8824 8.08C66.181 8.24 66.4477 8.45867 66.6824 8.736C66.7784 8.832 66.8264 8.944 66.8264 9.072C66.8264 9.18933 66.773 9.296 66.6664 9.392C66.581 9.456 66.4797 9.488 66.3624 9.488C66.2557 9.488 66.165 9.44533 66.0904 9.36C65.8344 9.072 65.5304 8.85333 65.1784 8.704C64.8264 8.55467 64.4477 8.48 64.0424 8.48C63.733 8.48 63.4397 8.53333 63.1624 8.64C62.8957 8.736 62.6717 8.88533 62.4904 9.088C62.309 9.29067 62.2184 9.55733 62.2184 9.888C62.2397 10.1973 62.3464 10.448 62.5384 10.64C62.741 10.832 63.0024 10.992 63.3224 11.12C63.653 11.248 64.021 11.3653 64.4264 11.472C64.7677 11.5573 65.093 11.6587 65.4024 11.776C65.7224 11.8933 65.9997 12.0427 66.2344 12.224C66.4797 12.3947 66.6717 12.6133 66.8104 12.88C66.9597 13.1467 67.0344 13.4827 67.0344 13.888C67.0344 14.3573 66.901 14.7627 66.6344 15.104C66.3784 15.4453 66.0317 15.7067 65.5944 15.888C65.157 16.0693 64.6717 16.16 64.1384 16.16C63.5624 16.16 63.0024 16.048 62.4584 15.824C61.925 15.6 61.4504 15.2267 61.0344 14.704ZM72.6944 16.16C71.873 16.16 71.1477 15.984 70.5184 15.632C69.889 15.28 69.3984 14.7893 69.0464 14.16C68.6944 13.5307 68.5184 12.7947 68.5184 11.952C68.5184 11.0453 68.6944 10.272 69.0464 9.632C69.409 8.992 69.873 8.50133 70.4384 8.16C71.0144 7.808 71.6224 7.632 72.2624 7.632C72.7317 7.632 73.185 7.71733 73.6224 7.888C74.0704 8.048 74.465 8.29333 74.8064 8.624C75.1584 8.944 75.4357 9.33867 75.6384 9.808C75.8517 10.2773 75.969 10.8213 75.9904 11.44C75.9797 11.568 75.9264 11.68 75.8304 11.776C75.7344 11.8613 75.6224 11.904 75.4944 11.904H69.0784L68.8864 11.04H75.1904L74.9824 11.232V10.912C74.9397 10.4107 74.7797 9.984 74.5024 9.632C74.225 9.28 73.889 9.01333 73.4944 8.832C73.0997 8.65067 72.689 8.56 72.2624 8.56C71.9424 8.56 71.6117 8.624 71.2704 8.752C70.9397 8.88 70.6357 9.08267 70.3584 9.36C70.0917 9.62667 69.873 9.97333 69.7024 10.4C69.5317 10.816 69.4464 11.312 69.4464 11.888C69.4464 12.5173 69.5744 13.088 69.8304 13.6C70.0864 14.112 70.4544 14.5173 70.9344 14.816C71.425 15.1147 72.0064 15.264 72.6784 15.264C73.0517 15.264 73.3877 15.2107 73.6864 15.104C73.985 14.9973 74.2464 14.8587 74.4704 14.688C74.6944 14.5067 74.881 14.32 75.0304 14.128C75.1477 14.032 75.265 13.984 75.3824 13.984C75.489 13.984 75.5797 14.0267 75.6544 14.112C75.7397 14.1973 75.7824 14.2933 75.7824 14.4C75.7824 14.528 75.729 14.64 75.6224 14.736C75.3024 15.12 74.8864 15.456 74.3744 15.744C73.8624 16.0213 73.3024 16.16 72.6944 16.16Z" fill="black"/>
</svg>
