<svg width="24" height="24" viewBox="0 0 24 24" fill="none" xmlns="http://www.w3.org/2000/svg">
<path d="M1.33334 24C0.95556 24 0.639116 23.808 0.384005 23.424C0.128894 23.04 0.000893486 22.5653 4.59769e-06 22C-0.000884291 21.4346 0.127116 20.96 0.384005 20.576C0.640893 20.192 0.957338 20 1.33334 20H22.6667C23.0444 20 23.3613 20.192 23.6173 20.576C23.8733 20.96 24.0009 21.4346 24 22C23.9991 22.5653 23.8711 23.0406 23.616 23.426C23.3609 23.8113 23.0444 24.0026 22.6667 24H1.33334ZM1.33334 14C0.95556 14 0.639116 13.808 0.384005 13.424C0.128894 13.04 0.000893486 12.5653 4.59769e-06 12C-0.000884291 11.4347 0.127116 10.96 0.384005 10.576C0.640893 10.192 0.957338 9.99999 1.33334 9.99999H22.6667C23.0444 9.99999 23.3613 10.192 23.6173 10.576C23.8733 10.96 24.0009 11.4347 24 12C23.9991 12.5653 23.8711 13.0407 23.616 13.426C23.3609 13.8113 23.0444 14.0027 22.6667 14H1.33334ZM1.33334 4C0.95556 4 0.639116 3.808 0.384005 3.424C0.128894 3.04 0.000893486 2.56533 4.59769e-06 2C-0.000884291 1.43467 0.127116 0.959999 0.384005 0.576C0.640893 0.192 0.957338 0 1.33334 0H22.6667C23.0444 0 23.3613 0.192 23.6173 0.576C23.8733 0.959999 24.0009 1.43467 24 2C23.9991 2.56533 23.8711 3.04066 23.616 3.426C23.3609 3.81133 23.0444 4.00266 22.6667 4H1.33334Z" fill="white"/>
</svg>
