<svg width="86" height="32" viewBox="0 0 86 32" fill="none" xmlns="http://www.w3.org/2000/svg">
<path d="M48.8527 15.2799C48.7958 15.3143 48.7569 15.369 48.7467 15.4346C48.7364 15.5001 48.7555 15.571 48.798 15.6292C48.8404 15.6874 48.9021 15.7273 48.9676 15.7375C49.0331 15.7478 49.0971 15.7276 49.1473 15.6839C49.1473 15.6839 49.1473 15.6839 49.1473 15.6839C49.176 15.6582 49.214 15.6277 49.2507 15.5988C49.9244 15.0802 50.7118 14.6678 51.5599 14.4254C51.6068 14.4121 51.6541 14.3993 51.702 14.387C51.6528 14.391 51.6038 14.3957 51.5552 14.4008C50.6721 14.4978 49.8033 14.7721 48.9916 15.2007C48.9448 15.2263 48.904 15.2483 48.8527 15.2799Z" fill="#2B7D73"/>
<path d="M39.4697 19.4697C39.3106 19.5919 39.2155 19.7666 39.2158 19.9658C39.2155 20.1644 39.3106 20.3713 39.4697 20.5303C39.6287 20.6894 39.8356 20.7845 40.0342 20.7842C40.2334 20.7845 40.4081 20.6894 40.5303 20.5303C40.5303 20.5303 40.5303 20.5303 40.5303 20.5303C40.5519 20.4979 40.5936 20.4473 40.6267 20.4056C41.2824 19.614 42.0439 18.8507 42.9379 18.3458C42.9876 18.3184 43.0385 18.2919 43.0889 18.2668C43.1484 18.2379 43.1964 18.1828 43.2237 18.1182C43.251 18.0534 43.2555 17.9844 43.2346 17.9218C43.2137 17.8592 43.1688 17.8067 43.108 17.7712C43.0474 17.7359 42.976 17.7206 42.9111 17.7332C42.9111 17.7332 42.9111 17.7332 42.9111 17.7332C42.8476 17.7461 42.7833 17.7609 42.7204 17.7766C41.5815 18.0784 40.5826 18.6669 39.6338 19.3447C39.5808 19.3836 39.5302 19.4207 39.4697 19.4697Z" fill="#2B7D73"/>
<path d="M31.8144 30.1404C31.818 30.2288 31.8372 30.3187 31.883 30.395C31.9287 30.4714 31.9964 30.5277 32.0764 30.5532C32.1563 30.5787 32.2441 30.572 32.3256 30.5363C32.4071 30.5005 32.4748 30.4384 32.529 30.3683C32.529 30.3683 32.529 30.3683 32.529 30.3683C32.6054 30.2657 32.6778 30.1624 32.747 30.058C33.3676 29.0806 33.7269 28.2462 34.2114 27.5858C34.6866 26.9007 35.3033 26.1812 35.9728 25.3461C36.0445 25.2553 36.1189 25.1616 36.1962 25.0652C36.2512 24.9959 36.2953 24.9152 36.3105 24.8275C36.3256 24.7398 36.311 24.653 36.2671 24.5815C36.2231 24.5099 36.1522 24.4577 36.0672 24.4316C35.9821 24.4055 35.8902 24.4084 35.8035 24.4262C35.678 24.4544 35.556 24.4845 35.4373 24.5164C34.3545 24.8188 33.2966 25.4082 32.5699 26.4433C31.8188 27.4948 31.74 28.7621 31.7983 29.784C31.8032 29.9022 31.809 30.0202 31.8144 30.1404Z" fill="#2B7D73"/>
<path d="M45.0728 30.8284C45.2873 30.9847 45.5524 31.0466 45.8129 30.9962C46.0732 30.946 46.3075 30.7875 46.4613 30.5601C46.6151 30.3327 46.6748 30.0562 46.6244 29.796C46.5742 29.5354 46.4179 29.3124 46.193 29.1716C46.193 29.1716 46.193 29.1716 46.193 29.1716C45.8205 28.9399 45.4573 28.6819 45.1178 28.4051C43.5919 27.1762 42.4267 25.3958 42.8409 23.599C43.2397 21.7846 44.9026 20.2922 46.6623 19.1462C50.2283 16.8842 54.4313 15.5244 58.5869 14.3717C59.0458 14.2467 59.5168 14.1228 60 14C60 14 60 14 60 14C59.5096 14.0902 59.0311 14.1817 58.564 14.2744C54.3266 15.1438 50.0458 16.1876 46.1477 18.2887C44.2323 19.3869 42.2111 20.7788 41.4368 23.237C40.6703 25.7775 42.1818 28.29 43.8622 29.8311C44.2439 30.1895 44.6515 30.5234 45.0728 30.8284Z" fill="#2B7D73"/>
<path d="M18.565 27.6069C18.1729 27.9655 17.9499 28.458 17.9581 28.9888C17.9656 29.5188 18.2037 30.0436 18.6069 30.435C19.0101 30.8265 19.5418 31.0489 20.0718 31.0407C20.6025 31.0332 21.0882 30.7957 21.435 30.3931C21.435 30.3931 21.435 30.3931 21.435 30.3931C21.7654 30.0048 22.1381 29.5996 22.5068 29.2152C29.4372 22.2605 38.3956 16.7269 48.3311 14.3534C48.8862 14.2243 49.4384 14.107 50 14C49.4298 14.0408 48.8662 14.0925 48.2973 14.1563C38.0641 15.3746 28.2618 19.8271 19.9338 26.4188C19.4775 26.7933 19.0087 27.1976 18.565 27.6069Z" fill="#2B7D73"/>
<path d="M2.208 8.784C2.35733 8.784 2.512 8.82667 2.672 8.912C2.84267 8.98667 2.97067 9.088 3.056 9.216L6.944 15.2L6.144 15.168L10.128 9.216C10.3307 8.928 10.592 8.784 10.912 8.784C11.168 8.784 11.3973 8.87467 11.6 9.056C11.8027 9.23733 11.904 9.472 11.904 9.76V19.024C11.904 19.3013 11.8133 19.536 11.632 19.728C11.4507 19.9093 11.2107 20 10.912 20C10.6133 20 10.368 19.9093 10.176 19.728C9.99467 19.536 9.904 19.3013 9.904 19.024V11.488L10.528 11.632L7.264 16.608C7.168 16.7253 7.04533 16.8267 6.896 16.912C6.75733 16.9973 6.61333 17.0347 6.464 17.024C6.32533 17.0347 6.18133 16.9973 6.032 16.912C5.89333 16.8267 5.776 16.7253 5.68 16.608L2.624 11.776L3.04 10.928V19.024C3.04 19.3013 2.95467 19.536 2.784 19.728C2.61333 19.9093 2.38933 20 2.112 20C1.84533 20 1.62667 19.9093 1.456 19.728C1.28533 19.536 1.2 19.3013 1.2 19.024V9.76C1.2 9.49333 1.296 9.264 1.488 9.072C1.69067 8.88 1.93067 8.784 2.208 8.784ZM22.4534 15.728C22.4534 16.6027 22.256 17.376 21.8614 18.048C21.4774 18.7093 20.9547 19.2267 20.2934 19.6C19.6427 19.9733 18.912 20.16 18.1014 20.16C17.2907 20.16 16.5547 19.9733 15.8934 19.6C15.2427 19.2267 14.72 18.7093 14.3254 18.048C13.9414 17.376 13.7494 16.6027 13.7494 15.728C13.7494 14.8533 13.9414 14.0853 14.3254 13.424C14.72 12.752 15.2427 12.2293 15.8934 11.856C16.5547 11.472 17.2907 11.28 18.1014 11.28C18.912 11.28 19.6427 11.472 20.2934 11.856C20.9547 12.2293 21.4774 12.752 21.8614 13.424C22.256 14.0853 22.4534 14.8533 22.4534 15.728ZM20.5334 15.728C20.5334 15.184 20.4214 14.7147 20.1974 14.32C19.984 13.9147 19.6907 13.6 19.3174 13.376C18.9547 13.152 18.5494 13.04 18.1014 13.04C17.6534 13.04 17.2427 13.152 16.8694 13.376C16.5067 13.6 16.2134 13.9147 15.9894 14.32C15.776 14.7147 15.6694 15.184 15.6694 15.728C15.6694 16.2613 15.776 16.7307 15.9894 17.136C16.2134 17.5307 16.5067 17.84 16.8694 18.064C17.2427 18.288 17.6534 18.4 18.1014 18.4C18.5494 18.4 18.9547 18.288 19.3174 18.064C19.6907 17.84 19.984 17.5307 20.1974 17.136C20.4214 16.7307 20.5334 16.2613 20.5334 15.728ZM24.4396 11.44C24.6423 11.44 24.829 11.4933 24.9996 11.6C25.1703 11.696 25.2983 11.8453 25.3836 12.048L27.7356 17.424L27.3836 17.584L29.7836 12.064C29.965 11.6373 30.2476 11.4347 30.6316 11.456C30.8983 11.456 31.1116 11.5413 31.2716 11.712C31.4423 11.872 31.5276 12.0747 31.5276 12.32C31.5276 12.3947 31.5116 12.4747 31.4796 12.56C31.4583 12.6453 31.4316 12.7253 31.3996 12.8L28.4076 19.392C28.237 19.776 27.965 19.9787 27.5916 20C27.389 20.032 27.1916 19.9947 26.9996 19.888C26.8183 19.7813 26.6796 19.616 26.5836 19.392L23.6076 12.8C23.5863 12.7467 23.5596 12.6773 23.5276 12.592C23.5063 12.5067 23.4956 12.4053 23.4956 12.288C23.4956 12.096 23.581 11.9093 23.7516 11.728C23.9223 11.536 24.1516 11.44 24.4396 11.44ZM36.9939 20.16C36.0872 20.16 35.2979 19.9733 34.6259 19.6C33.9645 19.216 33.4525 18.6987 33.0899 18.048C32.7379 17.3973 32.5619 16.6613 32.5619 15.84C32.5619 14.88 32.7539 14.064 33.1379 13.392C33.5325 12.7093 34.0445 12.1867 34.6739 11.824C35.3032 11.4613 35.9699 11.28 36.6739 11.28C37.2179 11.28 37.7299 11.392 38.2099 11.616C38.7005 11.84 39.1325 12.1493 39.5059 12.544C39.8792 12.928 40.1725 13.376 40.3859 13.888C40.6099 14.4 40.7219 14.944 40.7219 15.52C40.7112 15.776 40.6099 15.984 40.4179 16.144C40.2259 16.304 40.0019 16.384 39.7459 16.384H33.6339L33.1539 14.784H39.0259L38.6739 15.104V14.672C38.6525 14.3627 38.5405 14.0853 38.3379 13.84C38.1459 13.5947 37.9005 13.4027 37.6019 13.264C37.3139 13.1147 37.0045 13.04 36.6739 13.04C36.3539 13.04 36.0552 13.0827 35.7779 13.168C35.5005 13.2533 35.2605 13.3973 35.0579 13.6C34.8552 13.8027 34.6952 14.0747 34.5779 14.416C34.4605 14.7573 34.4019 15.1893 34.4019 15.712C34.4019 16.288 34.5192 16.7787 34.7539 17.184C34.9992 17.5787 35.3085 17.8827 35.6819 18.096C36.0659 18.2987 36.4712 18.4 36.8979 18.4C37.2925 18.4 37.6072 18.368 37.8419 18.304C38.0765 18.24 38.2632 18.1653 38.4019 18.08C38.5512 17.984 38.6845 17.904 38.8019 17.84C38.9939 17.744 39.1752 17.696 39.3459 17.696C39.5805 17.696 39.7725 17.776 39.9219 17.936C40.0819 18.096 40.1619 18.2827 40.1619 18.496C40.1619 18.784 40.0125 19.0453 39.7139 19.28C39.4365 19.5147 39.0472 19.7227 38.5459 19.904C38.0445 20.0747 37.5272 20.16 36.9939 20.16ZM58.5994 5.94C58.906 5.94 59.1994 6.06 59.4794 6.3C59.7594 6.52667 59.8994 6.84 59.8994 7.24C59.8994 7.36 59.8794 7.49333 59.8394 7.64L55.8994 19.24C55.8194 19.48 55.6727 19.6667 55.4594 19.8C55.2594 19.92 55.046 19.9867 54.8194 20C54.5927 20 54.366 19.9333 54.1394 19.8C53.926 19.6667 53.7594 19.4733 53.6394 19.22L50.6794 12.5L50.8594 12.62L47.9394 19.22C47.8194 19.4733 47.646 19.6667 47.4194 19.8C47.206 19.9333 46.986 20 46.7594 20C46.546 19.9867 46.3327 19.92 46.1194 19.8C45.906 19.6667 45.7594 19.48 45.6794 19.24L41.7394 7.64C41.6994 7.49333 41.6794 7.36 41.6794 7.24C41.6794 6.84 41.8194 6.52667 42.0994 6.3C42.3927 6.06 42.6927 5.94 42.9994 5.94C43.2527 5.94 43.486 6.00667 43.6994 6.14C43.926 6.27333 44.0794 6.46667 44.1594 6.72L47.3394 16.36L46.8994 16.34L49.7394 9.52C49.846 9.28 49.9994 9.09333 50.1994 8.96C50.3994 8.81333 50.626 8.74667 50.8794 8.76C51.1327 8.74667 51.3594 8.81333 51.5594 8.96C51.7594 9.09333 51.906 9.28 51.9994 9.52L54.5994 16.04L54.2794 16.24L57.4194 6.72C57.4994 6.46667 57.6527 6.27333 57.8794 6.14C58.106 6.00667 58.346 5.94 58.5994 5.94ZM63.7866 18.78C63.7866 19.1267 63.6732 19.42 63.4466 19.66C63.2199 19.8867 62.9332 20 62.5866 20C62.2399 20 61.9532 19.8867 61.7266 19.66C61.4999 19.42 61.3866 19.1267 61.3866 18.78V10.52C61.3866 10.1733 61.4999 9.88667 61.7266 9.66C61.9532 9.42 62.2399 9.3 62.5866 9.3C62.9332 9.3 63.2199 9.42 63.4466 9.66C63.6732 9.88667 63.7866 10.1733 63.7866 10.52V18.78ZM62.5666 8C62.1132 8 61.7932 7.92667 61.6066 7.78C61.4199 7.63333 61.3266 7.37333 61.3266 7V6.62C61.3266 6.23333 61.4266 5.97333 61.6266 5.84C61.8399 5.69333 62.1599 5.62 62.5866 5.62C63.0532 5.62 63.3799 5.69333 63.5666 5.84C63.7532 5.98667 63.8466 6.24667 63.8466 6.62V7C63.8466 7.38667 63.7466 7.65333 63.5466 7.8C63.3466 7.93333 63.0199 8 62.5666 8ZM65.6331 18.34C65.4998 18.1533 65.4398 17.9133 65.4531 17.62C65.4665 17.3267 65.6398 17.0733 65.9731 16.86C66.1865 16.7267 66.4131 16.6733 66.6531 16.7C66.8931 16.7133 67.1265 16.8333 67.3531 17.06C67.7398 17.4467 68.1465 17.7467 68.5731 17.96C68.9998 18.1733 69.5331 18.28 70.1731 18.28C70.3731 18.2667 70.5931 18.24 70.8331 18.2C71.0731 18.1467 71.2798 18.04 71.4531 17.88C71.6398 17.7067 71.7331 17.4467 71.7331 17.1C71.7331 16.8067 71.6331 16.5733 71.4331 16.4C71.2331 16.2267 70.9665 16.08 70.6331 15.96C70.3131 15.84 69.9531 15.7267 69.5531 15.62C69.1398 15.5 68.7131 15.3667 68.2731 15.22C67.8465 15.0733 67.4531 14.8867 67.0931 14.66C66.7331 14.42 66.4398 14.1067 66.2131 13.72C65.9865 13.3333 65.8731 12.8467 65.8731 12.26C65.8731 11.5933 66.0598 11.0267 66.4331 10.56C66.8065 10.0933 67.2865 9.73333 67.8731 9.48C68.4731 9.22667 69.0998 9.1 69.7531 9.1C70.1665 9.1 70.5998 9.15333 71.0531 9.26C71.5065 9.35333 71.9398 9.51333 72.3531 9.74C72.7665 9.95333 73.1131 10.24 73.3931 10.6C73.5398 10.8 73.6265 11.04 73.6531 11.32C73.6798 11.6 73.5531 11.8533 73.2731 12.08C73.0731 12.24 72.8398 12.3133 72.5731 12.3C72.3065 12.2733 72.0865 12.18 71.9131 12.02C71.6865 11.7267 71.3798 11.4933 70.9931 11.32C70.6198 11.1467 70.1865 11.06 69.6931 11.06C69.4931 11.06 69.2731 11.0867 69.0331 11.14C68.8065 11.18 68.6065 11.28 68.4331 11.44C68.2598 11.5867 68.1731 11.8267 68.1731 12.16C68.1731 12.4667 68.2731 12.7133 68.4731 12.9C68.6731 13.0733 68.9398 13.22 69.2731 13.34C69.6198 13.4467 69.9865 13.5533 70.3731 13.66C70.7731 13.7667 71.1798 13.8933 71.5931 14.04C72.0065 14.1867 72.3865 14.38 72.7331 14.62C73.0798 14.86 73.3598 15.1733 73.5731 15.56C73.7865 15.9333 73.8931 16.4133 73.8931 17C73.8931 17.68 73.6931 18.26 73.2931 18.74C72.8931 19.22 72.3931 19.5867 71.7931 19.84C71.1931 20.08 70.5798 20.2 69.9531 20.2C69.1665 20.2 68.3798 20.0667 67.5931 19.8C66.8065 19.52 66.1531 19.0333 65.6331 18.34ZM80.9416 20.2C79.8082 20.2 78.8216 19.9667 77.9816 19.5C77.1549 19.02 76.5149 18.3733 76.0616 17.56C75.6216 16.7467 75.4016 15.8267 75.4016 14.8C75.4016 13.6 75.6416 12.58 76.1216 11.74C76.6149 10.8867 77.2549 10.2333 78.0416 9.78C78.8282 9.32667 79.6616 9.1 80.5416 9.1C81.2216 9.1 81.8616 9.24 82.4616 9.52C83.0749 9.8 83.6149 10.1867 84.0816 10.68C84.5482 11.16 84.9149 11.72 85.1816 12.36C85.4616 13 85.6016 13.68 85.6016 14.4C85.5882 14.72 85.4616 14.98 85.2216 15.18C84.9816 15.38 84.7016 15.48 84.3816 15.48H76.7416L76.1416 13.48H83.4816L83.0416 13.88V13.34C83.0149 12.9533 82.8749 12.6067 82.6216 12.3C82.3816 11.9933 82.0749 11.7533 81.7016 11.58C81.3416 11.3933 80.9549 11.3 80.5416 11.3C80.1416 11.3 79.7682 11.3533 79.4216 11.46C79.0749 11.5667 78.7749 11.7467 78.5216 12C78.2682 12.2533 78.0682 12.5933 77.9216 13.02C77.7749 13.4467 77.7016 13.9867 77.7016 14.64C77.7016 15.36 77.8482 15.9733 78.1416 16.48C78.4482 16.9733 78.8349 17.3533 79.3016 17.62C79.7816 17.8733 80.2882 18 80.8216 18C81.3149 18 81.7082 17.96 82.0016 17.88C82.2949 17.8 82.5282 17.7067 82.7016 17.6C82.8882 17.48 83.0549 17.38 83.2016 17.3C83.4416 17.18 83.6682 17.12 83.8816 17.12C84.1749 17.12 84.4149 17.22 84.6016 17.42C84.8016 17.62 84.9016 17.8533 84.9016 18.12C84.9016 18.48 84.7149 18.8067 84.3416 19.1C83.9949 19.3933 83.5082 19.6533 82.8816 19.88C82.2549 20.0933 81.6082 20.2 80.9416 20.2Z" fill="#F2ECE1"/>
</svg>
